<?xml version="1.0" standalone="no"?>
<!DOCTYPE svg PUBLIC "-//W3C//DTD SVG 20010904//EN"
 "http://www.w3.org/TR/2001/REC-SVG-20010904/DTD/svg10.dtd">
<svg version="1.0" xmlns="http://www.w3.org/2000/svg"
 width="272.000000pt" height="272.000000pt" viewBox="0 0 272.000000 272.000000"
 preserveAspectRatio="xMidYMid meet">
<metadata>
Created by potrace 1.14, written by Peter Selinger 2001-2017
</metadata>
<g transform="translate(0.000000,272.000000) scale(0.100000,-0.100000)"
fill="#000000" stroke="none">
<path d="M1235 2660 c-12 -4 -27 -16 -35 -26 -14 -18 -14 -18 5 -4 19 14 19
14 6 -3 -8 -10 -22 -16 -31 -14 -9 2 -17 -2 -17 -9 0 -7 5 -10 11 -7 6 4 5 -1
-3 -11 -11 -13 -16 -14 -22 -4 -7 10 -9 10 -9 -1 0 -8 -8 -20 -17 -28 -10 -8
-12 -11 -4 -7 9 5 12 3 7 -4 -4 -7 -16 -12 -27 -12 -10 0 -19 -5 -19 -11 0 -5
6 -7 13 -3 6 4 1 -5 -12 -19 -26 -29 -42 -38 -21 -12 7 9 11 18 8 21 -3 2 -13
-11 -22 -31 -17 -35 -28 -46 -23 -22 2 6 -1 2 -7 -10 -5 -13 -15 -23 -21 -23
-7 0 -20 -10 -31 -22 l-19 -23 25 20 25 20 -19 -22 c-11 -13 -27 -23 -38 -23
-10 0 -18 -5 -18 -11 0 -5 6 -7 13 -3 6 4 1 -5 -12 -19 -26 -29 -42 -38 -21
-12 7 9 11 18 8 21 -3 2 -13 -11 -22 -31 -17 -35 -28 -46 -23 -22 2 6 -1 2 -7
-10 -5 -13 -15 -23 -22 -23 -6 0 -18 -8 -25 -17 -13 -17 -13 -17 6 -3 15 11
14 7 -4 -13 -29 -32 -32 -33 -25 -9 3 9 -1 7 -8 -6 -8 -12 -17 -19 -22 -15 -4
4 -4 -1 0 -11 5 -12 4 -17 -3 -13 -6 4 -19 -3 -29 -16 -19 -21 -19 -21 1 -7
19 14 19 14 6 -2 -7 -10 -22 -18 -32 -18 -11 0 -19 -5 -19 -11 0 -5 6 -7 13
-3 6 4 3 -2 -7 -14 -23 -27 -27 -28 -19 -4 3 9 4 15 2 12 -34 -40 -42 -52 -30
-45 10 5 12 4 7 -3 -4 -7 -16 -12 -27 -12 -10 0 -19 -5 -19 -11 0 -5 6 -7 13
-3 6 4 1 -5 -12 -19 -26 -29 -42 -38 -21 -12 7 9 11 18 8 21 -3 2 -13 -11 -22
-31 -17 -35 -28 -46 -23 -22 2 6 -1 2 -7 -10 -5 -13 -15 -23 -22 -23 -6 0 -18
-8 -25 -17 -13 -17 -13 -17 6 -3 15 11 14 7 -4 -13 -29 -32 -32 -33 -25 -9 3
9 -1 7 -8 -6 -8 -12 -17 -19 -22 -15 -4 4 -4 -1 0 -11 5 -12 4 -17 -3 -13 -6
4 -19 -3 -29 -16 -19 -21 -19 -21 1 -7 19 14 19 14 6 -2 -7 -10 -22 -18 -32
-18 -11 0 -19 -5 -19 -11 0 -5 6 -7 13 -3 6 4 1 -5 -12 -19 -26 -29 -42 -38
-21 -12 7 9 11 18 8 21 -3 2 -13 -11 -22 -31 -18 -37 -29 -47 -20 -17 3 9 -1
7 -8 -6 -8 -12 -17 -19 -22 -15 -4 4 -4 -1 0 -11 5 -12 4 -17 -3 -13 -6 4 -19
-3 -29 -16 -19 -21 -19 -21 1 -7 19 14 19 14 6 -2 -7 -10 -22 -18 -32 -18 -11
0 -19 -5 -19 -11 0 -5 6 -7 12 -3 7 4 4 -2 -6 -14 -23 -27 -27 -27 -19 -4 3
10 -2 6 -13 -8 -10 -14 -18 -29 -16 -33 1 -4 -5 -7 -14 -5 -9 2 -19 -4 -21
-12 -4 -13 -3 -13 6 0 6 8 11 10 11 4 0 -13 -46 -54 -61 -54 -5 0 -7 -5 -4
-10 4 -6 12 -7 18 -4 7 4 -3 -7 -21 -25 -18 -17 -30 -35 -27 -41 3 -5 1 -10
-4 -10 -13 0 -10 -22 4 -32 6 -5 5 -8 -2 -8 -7 0 -13 -11 -13 -25 0 -14 5 -25
11 -25 8 0 7 -6 -2 -17 -11 -13 -11 -17 -1 -21 9 -3 10 -7 2 -17 -8 -10 -8
-15 0 -20 8 -5 7 -11 -2 -23 -10 -12 -10 -14 -1 -8 7 4 23 0 35 -8 12 -9 18
-16 12 -16 -5 0 -14 3 -20 8 -5 4 -1 0 8 -10 10 -9 18 -21 18 -28 0 -6 5 -8
12 -4 8 5 9 2 5 -9 -4 -11 -1 -17 8 -17 17 0 37 -34 27 -46 -4 -5 0 -3 9 4 15
11 19 9 30 -17 7 -16 17 -27 21 -25 4 3 8 -2 8 -10 0 -9 5 -16 11 -16 5 0 7 5
3 12 -4 7 -3 8 4 4 6 -4 8 -14 5 -23 -4 -11 -3 -14 5 -9 7 4 12 2 12 -4 0 -6
5 -8 12 -4 8 5 9 2 5 -9 -4 -11 -1 -17 8 -17 7 0 17 -5 21 -12 5 -7 3 -8 -6
-3 -9 5 -11 4 -6 -4 6 -9 11 -9 24 1 13 11 14 11 8 0 -9 -15 38 -67 53 -58 6
4 8 -2 6 -15 -3 -17 0 -20 15 -16 11 3 19 2 18 -2 -3 -15 16 -41 30 -41 8 0
13 -3 9 -6 -3 -4 1 -13 9 -21 8 -8 11 -20 7 -26 -4 -8 -1 -7 9 1 14 11 18 9
29 -17 7 -16 17 -27 21 -25 4 3 8 -2 8 -10 0 -9 5 -16 11 -16 5 0 7 5 3 12 -4
7 -3 8 4 4 6 -4 8 -14 5 -23 -4 -11 -3 -14 5 -9 7 4 12 2 12 -4 0 -6 5 -8 12
-4 8 5 9 2 5 -9 -4 -11 -1 -17 8 -17 7 0 17 -5 21 -12 5 -7 3 -8 -6 -3 -9 5
-11 4 -6 -4 6 -9 11 -9 24 1 13 11 14 11 8 0 -9 -15 38 -67 53 -58 6 4 8 -2 6
-15 -3 -17 0 -20 15 -16 11 3 19 2 18 -2 -3 -15 15 -41 29 -41 8 0 11 -4 8
-10 -3 -5 -1 -10 5 -10 7 0 10 -6 7 -14 -4 -11 0 -13 15 -11 11 3 18 2 15 -1
-8 -8 54 -64 64 -59 4 3 5 -4 2 -15 -4 -15 -1 -18 16 -15 13 2 19 0 15 -6 -3
-6 15 -30 41 -54 27 -26 44 -49 40 -56 -6 -8 -2 -8 13 0 18 9 19 8 14 -11 -4
-17 -2 -20 11 -15 12 4 14 2 10 -10 -4 -11 -2 -14 5 -9 7 4 12 2 12 -4 0 -6 5
-8 12 -4 8 5 9 2 5 -9 -4 -11 -1 -17 8 -17 17 0 37 -34 27 -46 -4 -5 0 -3 9 4
15 11 19 9 30 -17 7 -16 17 -27 21 -25 4 3 8 -3 8 -13 0 -15 2 -16 11 -3 9 12
10 10 6 -8 -3 -13 -3 -21 0 -18 9 9 44 -14 38 -25 -4 -5 9 -9 27 -9 25 0 29 3
18 10 -13 8 -13 10 1 10 9 0 23 8 30 18 11 14 11 15 -1 4 -22 -19 -32 -14 -12
6 9 11 20 17 25 15 4 -2 7 1 7 7 0 6 5 8 12 4 7 -5 9 -2 5 9 -4 12 -2 14 10
10 11 -4 14 -2 9 5 -4 8 -1 12 10 12 10 0 14 3 11 6 -4 4 13 25 36 48 40 40
52 75 32 94 -5 4 -5 -1 -2 -11 4 -9 3 -17 -2 -17 -5 0 -11 14 -14 30 -4 17
-12 30 -18 30 -8 0 -8 -4 1 -15 7 -9 10 -18 8 -21 -3 -3 -12 8 -19 25 -9 21
-16 26 -22 18 -6 -8 -7 -4 -4 10 4 20 3 21 -15 12 -12 -6 -18 -7 -14 -1 3 5
-1 15 -10 22 -8 7 -12 20 -9 28 4 12 3 12 -9 3 -11 -9 -17 -6 -30 14 -9 14
-21 23 -25 20 -5 -2 -8 3 -7 13 0 10 -6 16 -16 16 -10 -1 -15 2 -12 7 3 5 0 9
-7 9 -6 0 -9 8 -6 20 4 17 2 18 -15 9 -14 -8 -18 -8 -14 0 4 6 -2 16 -13 23
-14 8 -17 16 -10 24 7 8 6 15 -2 20 -7 4 -9 3 -6 -3 4 -6 1 -13 -7 -16 -8 -3
-13 1 -12 11 0 10 -5 16 -14 14 -12 -3 -13 -1 -2 9 16 17 15 32 -2 26 -7 -3
-23 1 -34 8 -10 8 -22 12 -26 10 -3 -3 -4 -2 -1 2 7 9 -26 44 -36 37 -5 -3 -6
2 -3 10 4 9 -1 18 -10 22 -9 3 -16 14 -16 23 0 14 -2 14 -11 1 -9 -12 -10 -10
-6 8 4 19 3 21 -8 12 -16 -13 -16 5 0 30 7 12 6 13 -6 3 -12 -10 -20 -9 -36 2
-11 8 -24 11 -28 7 -5 -4 -5 -2 -2 4 8 13 -26 47 -37 37 -4 -4 -4 0 0 10 4 11
0 19 -10 23 -9 3 -16 10 -16 16 0 5 5 6 10 3 6 -3 10 -1 10 4 0 15 -13 14 -29
-2 -9 -7 -11 -7 -8 -1 6 11 -19 29 -34 26 -4 -1 -6 6 -5 16 0 10 -6 16 -16 16
-10 -1 -15 2 -12 7 3 5 0 9 -7 9 -6 0 -9 8 -6 20 4 17 2 18 -15 9 -12 -6 -18
-7 -14 -1 3 5 -1 15 -10 22 -8 7 -12 20 -9 28 4 11 2 12 -8 4 -10 -9 -17 -6
-30 8 -9 11 -13 20 -7 20 5 0 14 -8 20 -17 11 -17 11 -17 6 0 -3 10 -6 21 -6
23 0 2 -7 4 -16 4 -9 0 -12 5 -8 13 4 6 4 9 -1 5 -4 -4 -17 -2 -29 4 -11 7
-24 11 -27 11 -4 -1 -6 5 -5 15 0 10 -6 16 -16 16 -10 -1 -15 2 -12 7 3 5 0 9
-6 9 -6 0 -9 4 -6 9 6 9 -22 26 -37 22 -4 -1 -3 7 2 18 9 17 8 18 -12 14 -18
-4 -19 -3 -7 6 13 9 12 11 -3 11 -11 0 -15 4 -11 12 5 8 2 9 -9 5 -9 -3 -19
-1 -23 5 -4 7 -3 8 4 4 7 -4 12 -2 12 5 0 6 -8 9 -20 6 -11 -3 -18 -1 -15 4 3
4 -1 23 -10 40 -12 23 -13 29 -3 23 11 -6 11 -5 0 8 -9 12 -10 18 -2 23 6 4 9
14 5 22 -5 14 -3 14 12 2 10 -7 15 -9 11 -5 -4 5 0 15 10 23 9 8 11 11 3 7
-10 -5 -12 -3 -6 5 4 7 16 11 26 8 11 -3 17 -1 14 3 -3 5 5 16 17 24 12 9 18
16 14 16 -5 0 -19 -8 -30 -17 -12 -9 -7 -2 11 15 32 32 50 42 37 20 -4 -7 -3
-8 4 -4 6 4 8 14 5 23 -4 11 -3 14 5 9 7 -4 12 -1 12 9 0 9 5 13 10 10 6 -3
13 1 16 9 3 9 10 14 15 11 4 -3 6 3 4 14 -2 14 1 18 15 14 10 -3 21 0 24 6 5
7 1 8 -11 4 -16 -5 -16 -4 -3 8 8 8 20 21 27 29 11 13 12 12 7 -5 -4 -17 -3
-16 8 3 8 12 17 19 22 15 4 -4 4 1 0 11 -5 12 -4 17 3 13 6 -4 19 3 29 16 19
21 19 21 -1 7 -19 -14 -19 -14 -6 3 7 9 22 17 32 17 11 0 19 5 19 11 0 5 -6 7
-12 3 -7 -4 -4 2 6 14 23 27 27 27 19 5 -5 -15 -3 -14 10 2 8 11 13 23 11 26
-2 4 3 12 11 19 13 11 15 10 10 -6 -5 -13 -2 -12 7 4 8 12 17 19 22 15 4 -4 4
1 0 11 -5 12 -4 17 3 13 6 -4 19 3 29 16 19 21 19 21 -1 7 -19 -14 -19 -14 -6
3 7 9 22 17 32 17 11 0 19 5 19 11 0 5 -6 7 -12 3 -7 -4 -4 2 6 14 23 27 27
27 21 5 -3 -10 2 -3 10 15 8 17 18 32 21 32 3 0 2 -5 -2 -12 -4 -7 -3 -8 4 -4
7 4 12 13 12 20 0 7 10 17 23 22 12 6 16 9 10 7 -24 -5 -13 6 22 23 20 9 33
19 31 22 -3 3 -14 -1 -23 -8 -10 -8 -6 -2 9 13 28 28 45 36 32 15 -4 -7 -3 -8
4 -4 6 4 8 14 5 23 -4 11 -3 14 5 9 7 -4 12 -1 12 8 0 8 5 18 12 22 7 5 8 3 3
-6 -5 -9 -4 -11 3 -6 7 4 12 13 12 20 0 7 10 17 23 22 12 6 16 9 10 7 -24 -5
-13 6 22 23 20 9 33 19 31 22 -3 3 -14 -1 -23 -8 -10 -8 -6 -2 9 13 28 28 45
36 32 15 -4 -7 -3 -8 4 -4 6 4 9 13 5 22 -3 9 0 14 8 12 7 -2 13 2 14 9 0 7 6
18 13 25 11 11 13 10 10 -2 -2 -8 0 -6 5 6 5 11 23 26 39 33 16 7 27 16 24 19
-3 2 -14 -1 -23 -9 -11 -8 -14 -8 -7 -1 6 7 26 21 45 31 23 13 34 26 33 40 0
14 5 20 15 19 10 -2 15 4 15 15 -2 13 1 15 10 8 9 -8 13 -6 13 4 0 8 -4 15 -9
15 -4 0 -8 5 -8 11 0 16 -26 39 -35 31 -5 -4 -5 1 -2 10 3 10 1 20 -5 24 -7 4
-8 3 -4 -4 10 -16 -2 -15 -19 2 -10 9 -11 16 -3 24 8 8 5 9 -11 5 -13 -3 -21
-1 -21 6 0 7 -5 9 -12 5 -9 -5 -9 -2 1 9 12 15 11 17 -5 18 -11 1 -23 1 -28 0
-5 -1 -4 4 3 13 9 11 9 16 0 22 -8 4 -9 3 -5 -4 10 -17 -3 -15 -20 2 -11 11
-11 16 -1 19 6 3 2 6 -11 6 -13 1 -20 5 -17 11 7 11 7 12 -20 0z m175 -278 c0
-4 -10 -13 -22 -21 -23 -14 -23 -14 -4 8 20 22 26 25 26 13z"/>
<path d="M1992 2107 c-12 -7 -20 -16 -17 -19 3 -3 -8 -17 -24 -31 -16 -13 -27
-28 -23 -31 3 -4 -2 -4 -12 0 -14 5 -17 4 -12 -4 4 -7 2 -12 -4 -12 -6 0 -8
-5 -5 -10 4 -6 3 -10 -2 -9 -17 3 -36 -1 -30 -7 8 -8 -46 -63 -55 -57 -5 2 -8
1 -9 -4 0 -4 -2 -16 -4 -26 -2 -10 1 -14 8 -10 6 4 8 0 4 -10 -4 -12 -2 -14
10 -10 11 4 14 2 9 -5 -4 -7 -2 -12 4 -12 6 0 8 -5 4 -12 -4 -6 -3 -8 2 -5 12
7 120 -103 116 -117 -2 -6 0 -8 4 -4 4 4 18 -5 32 -20 14 -15 30 -26 34 -24 4
1 8 -2 8 -7 0 -4 20 -29 45 -54 25 -26 45 -44 45 -40 0 4 8 -4 17 -17 10 -14
28 -33 40 -43 13 -10 20 -24 16 -30 -3 -7 -3 -9 2 -5 4 4 22 -7 39 -26 18 -18
38 -36 46 -39 11 -4 11 -6 2 -6 -17 -1 10 -31 28 -31 7 0 9 -7 6 -16 -4 -9 -1
-24 6 -32 11 -13 11 -14 -1 -7 -11 6 -13 4 -7 -10 6 -16 4 -16 -11 -4 -11 9
-14 10 -9 2 4 -8 2 -13 -4 -13 -6 0 -9 -4 -6 -9 3 -5 -4 -11 -15 -14 -15 -4
-20 -11 -15 -23 6 -15 4 -15 -11 -3 -9 8 -14 9 -10 3 4 -7 0 -14 -8 -18 -8 -3
-15 -13 -15 -22 0 -10 -5 -14 -15 -10 -8 3 -14 2 -14 -2 3 -21 -3 -32 -17 -32
-11 0 -14 -5 -10 -16 6 -15 4 -15 -11 -3 -11 9 -14 10 -9 2 4 -8 2 -13 -4 -13
-6 0 -9 -4 -6 -9 3 -5 -4 -11 -15 -14 -15 -4 -20 -11 -15 -22 3 -9 2 -13 -4
-10 -5 3 -18 -3 -29 -14 -11 -11 -23 -16 -27 -13 -5 4 -2 -1 5 -11 12 -15 12
-17 -2 -11 -12 4 -21 -4 -32 -28 -8 -18 -13 -25 -11 -16 4 12 0 15 -9 11 -8
-3 -12 -9 -9 -14 3 -5 0 -9 -6 -9 -6 0 -8 -5 -4 -12 5 -8 2 -9 -9 -5 -9 3 -16
3 -16 -1 3 -18 -2 -32 -12 -32 -5 0 -7 5 -3 12 4 7 3 8 -5 4 -6 -4 -9 -11 -6
-16 3 -4 -2 -10 -10 -14 -8 -3 -15 -13 -15 -22 0 -10 -5 -14 -16 -10 -8 3 -12
2 -9 -4 3 -6 1 -10 -5 -10 -6 0 -8 -4 -5 -10 3 -5 -1 -10 -10 -10 -12 0 -15
-5 -11 -16 6 -15 4 -15 -11 -3 -15 12 -16 12 -10 -3 4 -11 2 -15 -7 -12 -7 3
-13 -2 -13 -10 0 -8 6 -12 14 -9 9 4 11 0 6 -13 -5 -13 -3 -15 8 -9 12 8 12 6
0 -9 -8 -9 -10 -16 -5 -15 23 4 34 -3 48 -28 8 -16 15 -24 16 -20 0 4 16 -8
35 -28 21 -20 33 -40 29 -47 -4 -6 -3 -8 4 -4 6 3 16 -2 22 -11 11 -17 11 -17
6 0 -3 11 -2 15 4 12 6 -3 10 -13 10 -21 0 -8 5 -14 11 -14 5 0 7 -5 3 -12 -4
-7 -3 -8 5 -4 6 4 9 12 6 17 -4 5 2 9 13 9 10 0 29 14 42 30 13 17 30 30 39
30 14 0 14 2 1 10 -13 8 -13 10 1 10 9 0 20 7 23 16 3 9 11 12 18 8 7 -4 10
-4 6 0 -9 11 23 46 35 39 6 -3 7 -1 4 4 -9 14 19 37 34 27 7 -4 9 -3 5 4 -8
14 34 53 48 45 6 -4 5 1 -3 10 -11 14 -11 17 0 18 8 1 18 1 22 0 5 -1 6 2 3 7
-6 11 30 43 39 34 4 -4 5 0 3 8 -2 8 3 14 9 13 7 -2 12 0 12 5 -3 18 2 32 12
32 5 0 7 -4 4 -10 -4 -6 1 -7 11 -3 12 4 14 8 6 11 -10 3 -10 7 -1 18 6 8 15
11 20 8 5 -3 8 0 7 8 -2 7 2 12 9 11 7 -2 10 3 7 11 -3 8 0 17 7 22 7 4 10 3
6 -3 -3 -5 0 -10 7 -10 8 0 12 6 9 13 -5 13 35 40 51 36 5 -2 4 4 -4 12 -12
16 -4 22 23 17 5 -1 6 3 3 8 -3 5 6 16 19 25 14 9 23 21 20 26 -3 6 0 7 8 4
12 -4 36 13 35 26 -3 19 15 49 25 43 7 -4 5 2 -3 12 -9 11 -10 16 -2 11 7 -4
12 -2 12 5 0 6 8 18 18 26 9 8 11 12 5 8 -7 -3 -13 -2 -13 2 0 5 6 15 13 22
10 11 9 12 -3 6 -13 -8 -13 -7 -1 8 11 14 11 17 0 17 -8 0 -6 6 7 16 10 8 14
13 8 10 -7 -3 -15 1 -18 10 -3 8 -2 13 2 10 4 -2 8 4 8 15 0 12 -7 19 -19 19
-14 0 -17 5 -12 19 4 13 0 23 -12 30 -17 10 -17 10 0 11 9 0 17 4 17 9 0 5 -8
8 -17 7 -10 0 -17 5 -16 12 2 6 -5 12 -14 12 -9 0 -13 3 -10 6 3 4 -7 19 -23
34 -20 19 -26 30 -18 33 7 3 2 6 -11 6 -19 1 -21 4 -12 15 10 12 8 13 -8 9
-13 -3 -21 -1 -21 7 0 15 -26 41 -34 33 -3 -4 -6 1 -6 11 0 10 -5 14 -11 10
-8 -4 -9 1 -4 17 5 19 4 21 -5 9 -9 -11 -13 -12 -17 -2 -2 6 -9 10 -14 7 -5
-4 -6 1 -3 9 3 9 1 16 -6 16 -15 0 -41 26 -33 34 4 3 -1 6 -10 6 -8 0 -19 9
-22 20 -3 11 -13 20 -21 20 -8 0 -12 5 -9 10 3 6 -1 10 -9 10 -8 0 -18 5 -22
12 -5 7 -3 8 7 3 12 -8 12 -6 0 8 -16 20 -36 23 -25 5 4 -8 3 -10 -2 -5 -5 5
-10 13 -10 18 -1 5 -2 14 -3 20 0 5 -5 8 -9 5 -5 -3 -14 4 -22 14 -8 10 -18
16 -24 13 -6 -4 -4 2 4 12 9 11 10 16 2 11 -7 -4 -15 -1 -18 8 -3 9 -10 16
-16 16 -13 0 -38 26 -38 39 0 6 -5 11 -11 11 -5 0 -7 6 -3 13 6 9 5 9 -7 0
-12 -10 -17 -8 -29 10 -13 21 -12 21 6 7 18 -14 18 -14 5 3 -7 9 -20 17 -27
17 -8 0 -14 5 -14 11 0 10 -24 39 -32 39 -2 -1 -13 -6 -26 -13z m628 -941 c0
-3 -4 -8 -10 -11 -5 -3 -10 -1 -10 4 0 6 5 11 10 11 6 0 10 -2 10 -4z"/>
<path d="M1939 2063 c-13 -16 -12 -17 4 -4 9 7 17 15 17 17 0 8 -8 3 -21 -13z"/>
<path d="M10 1319 c0 -5 5 -7 10 -4 6 3 10 8 10 11 0 2 -4 4 -10 4 -5 0 -10
-5 -10 -11z"/>
<path d="M550 1160 c0 -6 7 -10 15 -10 8 0 15 2 15 4 0 2 -7 6 -15 10 -8 3
-15 1 -15 -4z"/>
<path d="M590 1121 c0 -6 4 -12 8 -15 5 -3 9 1 9 9 0 8 -4 15 -9 15 -4 0 -8
-4 -8 -9z"/>
<path d="M690 1016 c0 -2 8 -10 18 -17 15 -13 16 -12 3 4 -13 16 -21 21 -21
13z"/>
<path d="M747 959 c7 -7 15 -10 18 -7 3 3 -2 9 -12 12 -14 6 -15 5 -6 -5z"/>
<path d="M795 910 c3 -5 8 -10 11 -10 2 0 4 5 4 10 0 6 -5 10 -11 10 -5 0 -7
-4 -4 -10z"/>
<path d="M900 805 c13 -14 25 -25 27 -25 9 0 -33 49 -41 50 -5 0 1 -11 14 -25z"/>
<path d="M1060 645 c13 -14 25 -25 27 -25 9 0 -33 49 -41 50 -5 0 1 -11 14
-25z"/>
<path d="M1170 536 c0 -2 8 -10 18 -17 15 -13 16 -12 3 4 -13 16 -21 21 -21
13z"/>
<path d="M1227 479 c7 -7 15 -10 18 -7 3 3 -2 9 -12 12 -14 6 -15 5 -6 -5z"/>
<path d="M1287 416 c20 -26 27 -28 17 -3 -3 8 -12 18 -20 21 -11 4 -10 0 3
-18z"/>
<path d="M1330 376 c0 -2 8 -10 18 -17 15 -13 16 -12 3 4 -13 16 -21 21 -21
13z"/>
</g>
</svg>
